<svg width="61" height="60" viewBox="0 0 61 60" fill="none" xmlns="http://www.w3.org/2000/svg">
<path d="M52.057 25.5C52.297 25.5 52.5045 25.6675 52.5445 25.9025C52.7795 27.2175 52.907 28.6325 52.907 30C52.9139 35.5371 50.872 40.8809 47.1745 45.0025C47.0886 45.0977 46.969 45.1556 46.8411 45.164C46.7132 45.1724 46.5871 45.1306 46.4895 45.0475L40.377 39.8725C40.3243 39.8272 40.2814 39.7717 40.2507 39.7094C40.2201 39.647 40.2023 39.5792 40.1986 39.5098C40.1949 39.4404 40.2052 39.371 40.229 39.3058C40.2528 39.2405 40.2895 39.1807 40.337 39.13C41.5678 37.7901 42.5151 36.2152 43.122 34.5H30.907C30.7744 34.5 30.6472 34.4473 30.5534 34.3536C30.4597 34.2598 30.407 34.1326 30.407 34V26C30.407 25.725 30.632 25.5 30.907 25.5H52.057ZM36.5895 42C36.6795 41.9547 36.7806 41.9363 36.8808 41.947C36.981 41.9576 37.076 41.9968 37.1545 42.06L43.5745 47.4925C43.6318 47.5402 43.6774 47.6003 43.7079 47.6683C43.7384 47.7363 43.753 47.8104 43.7506 47.8849C43.7482 47.9593 43.7289 48.0323 43.694 48.0982C43.6591 48.1641 43.6097 48.2211 43.5495 48.265C39.7239 51.0254 35.1245 52.5075 30.407 52.5C26.6573 52.5003 22.967 51.5635 19.6715 49.7747C16.3759 47.986 13.5797 45.4019 11.537 42.2575C11.4701 42.1535 11.4448 42.0281 11.4661 41.9063C11.4874 41.7845 11.5538 41.6751 11.652 41.6L18.0145 36.695C18.073 36.6513 18.1401 36.6204 18.2114 36.6045C18.2826 36.5886 18.3565 36.5879 18.428 36.6025C18.4996 36.6172 18.5672 36.6468 18.6265 36.6895C18.6858 36.7321 18.7354 36.7868 18.772 36.85C20.522 39.8219 23.3431 42.0114 26.6564 42.969C29.9696 43.9267 33.5238 43.58 36.5895 42ZM17.107 32.315C17.1244 32.4066 17.1159 32.5013 17.0823 32.5884C17.0487 32.6754 16.9915 32.7513 16.917 32.8075L10.0795 38.075C10.0191 38.1224 9.94853 38.1549 9.87332 38.17C9.79812 38.185 9.72042 38.1823 9.64649 38.1618C9.57255 38.1414 9.50445 38.1039 9.44765 38.0523C9.39086 38.0008 9.34696 37.9366 9.31949 37.865C8.38316 35.3486 7.90478 32.6849 7.90699 30C7.90699 27.12 8.44949 24.365 9.43699 21.8325C9.46472 21.7627 9.50813 21.7002 9.56385 21.6499C9.61958 21.5995 9.68614 21.5626 9.75838 21.5421C9.83063 21.5215 9.90663 21.5179 9.98051 21.5314C10.0544 21.5449 10.1242 21.5752 10.1845 21.62L17.0145 26.63C17.177 26.7475 17.252 26.955 17.2095 27.15C16.8423 28.8489 16.8092 30.6026 17.107 32.315ZM18.2745 22.9025C18.5145 23.0775 18.852 23.0075 19.012 22.7575C20.2312 20.8397 21.9147 19.2607 23.9067 18.1668C25.8986 17.073 28.1345 16.4996 30.407 16.5C33.5496 16.499 36.593 17.6004 39.007 19.6125C39.1044 19.6951 39.2292 19.7383 39.3568 19.7336C39.4845 19.729 39.6058 19.6769 39.697 19.5875L45.362 13.92C45.4095 13.8728 45.4468 13.8164 45.4717 13.7543C45.4967 13.6922 45.5087 13.6257 45.5071 13.5587C45.5054 13.4918 45.4902 13.4259 45.4622 13.3651C45.4343 13.3043 45.3942 13.2498 45.3445 13.205C41.238 9.52839 35.9189 7.49689 30.407 7.50001C26.7061 7.49752 23.0618 8.40901 19.7979 10.1535C16.5339 11.898 13.7512 14.4215 11.697 17.5C11.6279 17.6058 11.6021 17.734 11.6249 17.8582C11.6477 17.9825 11.7174 18.0932 11.8195 18.1675L18.2745 22.9025Z" fill="#C0392B" fill-opacity="0.7"/>
</svg>
