<svg width="60" height="60" viewBox="0 0 60 60" fill="none" xmlns="http://www.w3.org/2000/svg">
<mask id="mask0_17_6" style="mask-type:luminance" maskUnits="userSpaceOnUse" x="4" y="4" width="52" height="52">
<path d="M30 55C43.8071 55 55 43.8071 55 30C55 16.1929 43.8071 5 30 5C16.1929 5 5 16.1929 5 30C5 43.8071 16.1929 55 30 55Z" fill="#555555" stroke="white" stroke-width="2" stroke-linecap="round" stroke-linejoin="round"/>
<path d="M47.5 47.5L43.75 43.75M12.5 12.5L16.25 16.25" stroke="white" stroke-width="2" stroke-linecap="round" stroke-linejoin="round"/>
<path d="M26.4287 35L22.5 21.25L18.5712 35H26.4287Z" fill="#555555"/>
<path d="M17.5 38.75L18.5713 35M18.5713 35L22.5 21.25L26.4287 35M18.5713 35H26.4287M27.5 38.75L26.4287 35" stroke="white" stroke-width="2" stroke-linecap="round" stroke-linejoin="round"/>
<path d="M43.75 30C43.75 36.25 39.2725 38.75 33.75 38.75V21.25C39.2725 21.25 43.75 23.75 43.75 30Z" fill="#555555" stroke="white" stroke-width="2" stroke-linecap="round" stroke-linejoin="round"/>
</mask>
<g mask="url(#mask0_17_6)">
<path d="M0 0H60V60H0V0Z" fill="#CD7066"/>
</g>
</svg>
