<svg width="43" height="44" viewBox="0 0 43 44" fill="none" xmlns="http://www.w3.org/2000/svg">
<path d="M15.471 7.62156C16.7383 3.75331 21.8625 3.63616 23.365 7.2701L23.4921 7.62377L25.2023 12.8404C25.5943 14.0367 26.2276 15.1315 27.0596 16.0509C27.8917 16.9702 28.9031 17.6927 30.0256 18.1697L30.4855 18.3488L35.4867 20.1304C39.1953 21.4522 39.3076 26.797 35.8258 28.3642L35.4867 28.4968L30.4855 30.2807C29.3381 30.6892 28.2881 31.3497 27.4063 32.2176C26.5245 33.0855 25.8315 34.1405 25.374 35.3116L25.2023 35.7891L23.4943 41.0079C22.227 44.8761 17.1028 44.9933 15.6024 41.3615L15.471 41.0079L13.7629 35.7913C13.3713 34.5945 12.7381 33.4993 11.906 32.5795C11.0739 31.6598 10.0624 30.9369 8.93968 30.4597L8.48194 30.2807L3.48065 28.4991C-0.230043 27.1772 -0.34236 21.8324 3.14158 20.2674L3.48065 20.1304L8.48194 18.3488C9.62891 17.94 10.6785 17.2794 11.5599 16.4115C12.4413 15.5436 13.134 14.4887 13.5913 13.3178L13.7629 12.8404L15.471 7.62156ZM36.4361 3.99397e-07C36.8326 -5.21599e-07 37.2211 0.116 37.5575 0.334817C37.8939 0.553635 38.1647 0.866494 38.3392 1.23784L38.4409 1.49646L39.1826 3.76436L41.359 4.53801C41.7563 4.6788 42.1046 4.93946 42.3597 5.28694C42.6149 5.63442 42.7654 6.05308 42.7922 6.48987C42.8189 6.92665 42.7208 7.3619 42.5102 7.74045C42.2996 8.119 41.9859 8.42381 41.6091 8.61625L41.359 8.72235L39.1847 9.496L38.443 11.7661C38.3078 12.1804 38.0577 12.5435 37.7244 12.8094C37.3912 13.0753 36.9897 13.232 36.571 13.2597C36.1523 13.2874 35.7351 13.1849 35.3723 12.965C35.0095 12.7451 34.7174 12.4179 34.5331 12.0247L34.4314 11.7661L33.6897 9.49821L31.5133 8.72456C31.116 8.58377 30.7677 8.32311 30.5125 7.97564C30.2574 7.62816 30.1069 7.2095 30.0801 6.77271C30.0533 6.33592 30.1515 5.90067 30.3621 5.52212C30.5727 5.14357 30.8863 4.83876 31.2632 4.64632L31.5133 4.54022L33.6875 3.76657L34.4293 1.49646C34.5722 1.05974 34.8425 0.68061 35.2024 0.412242C35.5623 0.143875 35.9937 -0.000276926 36.4361 3.99397e-07Z" fill="#CD7066"/>
</svg>
