<svg width="40" height="46" viewBox="0 0 40 46" fill="none" xmlns="http://www.w3.org/2000/svg">
<path d="M14.5625 45.1708C10.2708 43.9625 6.77083 41.5983 4.0625 38.0783C1.35417 34.5583 0 30.5058 0 25.9208C0 23.5458 0.395833 21.285 1.1875 19.1383C1.97917 16.9917 3.10417 15.0233 4.5625 13.2333C5.02083 12.7333 5.58333 12.4725 6.25 12.4508C6.91667 12.4292 7.52083 12.69 8.0625 13.2333C8.52083 13.6917 8.76083 14.2542 8.7825 14.9208C8.80417 15.5875 8.585 16.2125 8.125 16.7958C7.125 18.0875 6.35417 19.5042 5.8125 21.0458C5.27083 22.5875 5 24.2125 5 25.9208C5 29.2958 5.99 32.3067 7.97 34.9533C9.95 37.6 12.5017 39.4017 15.625 40.3583C16.1667 40.525 16.615 40.8375 16.97 41.2958C17.325 41.7542 17.5017 42.2542 17.5 42.7958C17.5 43.6292 17.2083 44.2858 16.625 44.7658C16.0417 45.2458 15.3542 45.3808 14.5625 45.1708ZM25.4375 45.1708C24.6458 45.3792 23.9583 45.2333 23.375 44.7333C22.7917 44.2333 22.5 43.5667 22.5 42.7333C22.5 42.2333 22.6775 41.7542 23.0325 41.2958C23.3875 40.8375 23.835 40.525 24.375 40.3583C27.5 39.3583 30.0525 37.5458 32.0325 34.9208C34.0125 32.2958 35.0017 29.2958 35 25.9208C35 21.7542 33.5417 18.2125 30.625 15.2958C27.7083 12.3792 24.1667 10.9208 20 10.9208H19.8125L20.8125 11.9208C21.2708 12.3792 21.5 12.9625 21.5 13.6708C21.5 14.3792 21.2708 14.9625 20.8125 15.4208C20.3542 15.8792 19.7708 16.1083 19.0625 16.1083C18.3542 16.1083 17.7708 15.8792 17.3125 15.4208L12.0625 10.1708C11.8125 9.92084 11.6358 9.65 11.5325 9.35834C11.4292 9.06667 11.3767 8.75417 11.375 8.42084C11.3733 8.0875 11.4258 7.775 11.5325 7.48334C11.6392 7.19167 11.8158 6.92084 12.0625 6.67084L17.3125 1.42084C17.7708 0.962504 18.3542 0.733337 19.0625 0.733337C19.7708 0.733337 20.3542 0.962504 20.8125 1.42084C21.2708 1.87917 21.5 2.4625 21.5 3.17084C21.5 3.87917 21.2708 4.4625 20.8125 4.92084L19.8125 5.92084H20C25.5833 5.92084 30.3125 7.85834 34.1875 11.7333C38.0625 15.6083 40 20.3375 40 25.9208C40 30.4625 38.6458 34.5042 35.9375 38.0458C33.2292 41.5875 29.7292 43.9625 25.4375 45.1708Z" fill="#C0392B" fill-opacity="0.7"/>
</svg>
