<svg width="60" height="60" viewBox="0 0 60 60" fill="none" xmlns="http://www.w3.org/2000/svg">
<path d="M50.0292 37.5952C51.5082 36.1191 52.4352 35.2521 54.4571 35.2521C56.239 35.2521 57.859 35.9631 59.2029 36.8932C56.089 50.1419 44.1945 60.0035 29.999 60.0035C16.4035 60.0035 4.91993 50.958 1.23606 38.5523C3.71097 39.9143 6.90285 41.2524 9.99574 41.2524C12.4346 41.2524 14.9006 40.4214 16.9705 39.4583C18.4479 38.7612 19.8735 37.9591 21.2363 37.0582C22.2893 38.3693 23.6235 39.427 25.1402 40.153C26.657 40.8789 28.3175 41.2547 29.999 41.2524C32.2549 41.2524 34.3548 40.5894 36.1158 39.4463C37.8377 40.4574 39.9706 41.2524 42.4275 41.2524C46.3664 41.2524 48.4453 39.1793 49.9662 37.6582L50.0292 37.5952Z" fill="#CD7066"/>
<path fill-rule="evenodd" clip-rule="evenodd" d="M29.9989 18.7511C28.2628 18.7509 26.5503 19.1524 24.9953 19.9244C23.4403 20.6964 22.085 21.8178 21.0356 23.2009C19.9862 24.584 19.2711 26.1912 18.9463 27.8967C18.6214 29.6023 18.6957 31.3599 19.1633 33.0319C18.0263 33.8 16.5984 34.67 15.0745 35.3781C13.2625 36.2181 11.4926 36.7521 9.99564 36.7521C7.71573 36.7521 4.91383 35.5311 2.45692 34.07C1.55696 33.533 0.752986 32.9959 0.10501 32.5339C0.0350126 31.6979 1.36327e-05 30.8538 1.36327e-05 30.0018C-0.00406871 25.7233 0.908744 21.4936 2.67696 17.5977C4.44517 13.7018 7.02772 10.2301 10.2506 7.41647C10.2986 7.47647 10.3516 7.53448 10.4096 7.59048L13.4095 10.5907C13.836 10.9881 14.4001 11.2045 14.983 11.1942C15.5659 11.1839 16.122 10.9478 16.5343 10.5355C16.9465 10.1233 17.1826 9.56706 17.1929 8.98413C17.2032 8.40119 16.9868 7.83702 16.5894 7.41047L13.8775 4.69531C18.6914 1.6197 24.2866 -0.00987232 29.9989 4.49979e-05C34.277 -0.00403773 38.5062 0.908861 42.4018 2.67724C46.2974 4.44563 49.7687 7.02842 52.5821 10.2516L52.4081 10.4106L49.4082 13.4108C49.0107 13.8374 48.7944 14.4015 48.8047 14.9845C48.815 15.5674 49.0511 16.1236 49.4633 16.5359C49.8755 16.9481 50.4317 17.1843 51.0145 17.1946C51.5974 17.2048 52.1615 16.9885 52.5881 16.591L55.3029 13.8788C58.7645 19.2962 60.3848 25.6865 59.9228 32.0989C58.2318 31.227 56.3594 30.7656 54.457 30.7518C50.5151 30.7518 48.4392 32.8249 46.9153 34.346L46.8523 34.409C45.3733 35.8851 44.4464 36.7521 42.4274 36.7521C41.3775 36.7521 40.3785 36.5061 39.4515 36.1041C40.5484 34.405 41.167 32.4416 41.2423 30.4206C41.3176 28.3995 40.8467 26.3955 39.8793 24.6195C38.9119 22.8435 37.4836 21.3611 35.7449 20.3284C34.0061 19.2957 32.0212 18.7508 29.9989 18.7511ZM43.3484 7.20046C43.5848 7.37775 43.7839 7.59987 43.9344 7.85413C44.085 8.1084 44.184 8.38982 44.2258 8.68234C44.2675 8.97486 44.2513 9.27275 44.178 9.559C44.1046 9.84525 43.9757 10.1142 43.7984 10.3506L39.2985 16.351C39.1213 16.5874 38.8992 16.7865 38.6449 16.9371C38.3907 17.0876 38.1093 17.1866 37.8168 17.2284C37.5243 17.2702 37.2265 17.254 36.9402 17.1806C36.654 17.1073 36.385 16.9783 36.1487 16.801C35.9123 16.6237 35.7132 16.4016 35.5626 16.1473C35.4121 15.8931 35.3131 15.6116 35.2713 15.3191C35.2295 15.0266 35.2458 14.7287 35.3191 14.4425C35.3924 14.1562 35.5214 13.8872 35.6987 13.6508L40.1985 7.65048C40.5565 7.17307 41.0895 6.85744 41.6803 6.77305C42.271 6.68865 42.871 6.84239 43.3484 7.20046ZM25.4091 4.4103C24.9877 4.8322 24.7511 5.4041 24.7511 6.00039C24.7511 6.59667 24.9877 7.16858 25.4091 7.59048L28.409 10.5907C28.6149 10.8117 28.8633 10.989 29.1393 11.112C29.4153 11.235 29.7132 11.3011 30.0153 11.3065C30.3174 11.3118 30.6175 11.2562 30.8977 11.1431C31.1778 11.0299 31.4323 10.8614 31.6459 10.6478C31.8596 10.4341 32.028 10.1796 32.1412 9.8994C32.2543 9.61922 32.3099 9.31912 32.3046 9.01699C32.2993 8.71487 32.2331 8.41691 32.1102 8.1409C31.9872 7.86488 31.8099 7.61647 31.5888 7.41047L28.5889 4.4103C28.1671 3.98892 27.5952 3.75224 26.999 3.75224C26.4028 3.75224 25.8309 3.98892 25.4091 4.4103ZM19.2293 16.681C19.384 17.2569 19.7609 17.7478 20.2772 18.046C20.7936 18.3441 21.4072 18.4251 21.9832 18.2711L26.081 17.173C26.3754 17.1051 26.653 16.9786 26.8974 16.801C27.1418 16.6234 27.348 16.3985 27.5036 16.1395C27.6592 15.8805 27.761 15.5929 27.8031 15.2937C27.8451 14.9945 27.8265 14.69 27.7483 14.3981C27.6701 14.1063 27.534 13.8332 27.348 13.5952C27.162 13.3571 26.93 13.1589 26.6658 13.0125C26.4015 12.866 26.1105 12.7743 25.8101 12.7427C25.5097 12.7112 25.206 12.7404 24.9171 12.8288L20.8192 13.9268C20.2434 14.0815 19.7525 14.4585 19.4544 14.9749C19.1563 15.4913 19.0753 16.1049 19.2293 16.681ZM44.2544 27.4156C44.8497 27.3869 45.4093 27.123 45.8103 26.682C46.2113 26.241 46.421 25.6589 46.3933 25.0635L46.1983 20.8212C46.1909 20.5217 46.1238 20.2266 46.0008 19.9533C45.8779 19.68 45.7016 19.434 45.4823 19.2298C45.263 19.0256 45.0051 18.8673 44.7238 18.7641C44.4424 18.6609 44.1434 18.615 43.844 18.629C43.5447 18.6429 43.2512 18.7166 42.9807 18.8456C42.7103 18.9745 42.4683 19.1562 42.269 19.38C42.0697 19.6038 41.9171 19.8651 41.8201 20.1487C41.7232 20.4322 41.6839 20.7323 41.7045 21.0312L41.9025 25.2705C41.9304 25.8664 42.1939 26.4268 42.635 26.8285C43.076 27.2302 43.6585 27.4433 44.2544 27.4156ZM50.8241 28.6607C51.2185 29.108 51.7743 29.3804 52.3695 29.4181C52.9646 29.4558 53.5503 29.2557 53.998 28.8617L57.5169 25.9425C57.7401 25.7477 57.9227 25.5108 58.0542 25.2452C58.1856 24.9796 58.2633 24.6907 58.2828 24.395C58.3023 24.0994 58.2633 23.8027 58.1678 23.5222C58.0724 23.2417 57.9225 22.9828 57.7268 22.7603C57.531 22.5379 57.2933 22.3563 57.0271 22.226C56.761 22.0957 56.4718 22.0193 56.1761 22.0011C55.8804 21.9828 55.5839 22.0232 55.3039 22.1199C55.0238 22.2166 54.7655 22.3676 54.544 22.5643L51.0251 25.4835C50.803 25.6786 50.6215 25.9157 50.491 26.181C50.3606 26.4463 50.2836 26.7347 50.2647 27.0298C50.2458 27.3249 50.2851 27.6208 50.3806 27.9006C50.4761 28.1805 50.6288 28.4387 50.8241 28.6607ZM11.6876 15.5229C11.4185 15.6451 11.1761 15.819 10.9742 16.0348C10.7724 16.2506 10.615 16.5041 10.5111 16.7807C10.4072 17.0574 10.3588 17.3518 10.3686 17.6471C10.3785 17.9425 10.4465 18.233 10.5686 18.5021L12.3266 22.3633C12.4423 22.6419 12.6129 22.8943 12.8281 23.1056C13.0434 23.3169 13.2989 23.4828 13.5795 23.5933C13.8601 23.7039 14.1601 23.7569 14.4616 23.7492C14.7632 23.7415 15.06 23.6733 15.3347 23.5485C15.6093 23.4238 15.856 23.2451 16.0602 23.0231C16.2644 22.8011 16.4218 22.5403 16.5232 22.2562C16.6246 21.9721 16.6678 21.6705 16.6503 21.3693C16.6328 21.0682 16.555 20.7737 16.4214 20.5032L14.6695 16.636C14.4223 16.093 13.9697 15.6705 13.4111 15.4612C12.8525 15.2519 12.2336 15.273 11.6906 15.5199M14.8285 26.6806C15.0676 26.8552 15.2699 27.0753 15.4238 27.3283C15.5777 27.5812 15.6802 27.8621 15.7253 28.1548C15.7705 28.4474 15.7574 28.7461 15.6869 29.0337C15.6164 29.3213 15.4898 29.5922 15.3144 29.8308L12.8095 33.2509C12.6376 33.4959 12.4186 33.7041 12.1652 33.8634C11.9118 34.0226 11.6292 34.1297 11.3339 34.1784C11.0387 34.2271 10.7366 34.2164 10.4456 34.1469C10.1545 34.0774 9.88019 33.9505 9.63874 33.7737C9.39729 33.5969 9.19354 33.3737 9.03941 33.1172C8.88528 32.8606 8.78387 32.5759 8.74112 32.2797C8.69837 31.9835 8.71514 31.6817 8.79044 31.3921C8.86574 31.1024 8.99807 30.8307 9.17967 30.5928L11.6846 27.1726C12.0367 26.6908 12.5657 26.3687 13.1553 26.277C13.7448 26.1852 14.3467 26.3315 14.8285 26.6836M4.68884 18.5711C4.39375 18.5872 4.10473 18.6613 3.83828 18.7891C3.57183 18.917 3.33317 19.0961 3.13594 19.3162C2.93871 19.5363 2.78676 19.7931 2.68879 20.0719C2.59081 20.3507 2.54872 20.6461 2.56492 20.9412L2.80191 25.1775C2.83493 25.7735 3.10332 26.3319 3.54805 26.73C3.99277 27.128 4.5774 27.3331 5.17332 27.3001C5.76924 27.2671 6.32763 26.9987 6.72567 26.5539C7.1237 26.1091 7.32876 25.5244 7.29574 24.9285L7.05575 20.6922C7.02246 20.0968 6.75414 19.5389 6.30976 19.1411C5.86538 18.7434 5.28429 18.5384 4.68884 18.5711Z" fill="#CD7066"/>
</svg>
