<svg width="46" height="46" viewBox="0 0 46 46" fill="none" xmlns="http://www.w3.org/2000/svg">
<path d="M2.375 19.25C1.87772 19.25 1.40081 19.0525 1.04918 18.7008C0.697544 18.3492 0.5 17.8723 0.5 17.375V2.37875C0.5 1.88147 0.697544 1.40456 1.04918 1.05293C1.40081 0.701298 1.87772 0.503754 2.375 0.503754H17.375C17.8723 0.503754 18.3492 0.701298 18.7008 1.05293C19.0525 1.40456 19.25 1.88147 19.25 2.37875V17.375C19.25 17.8723 19.0525 18.3492 18.7008 18.7008C18.3492 19.0525 17.8723 19.25 17.375 19.25H2.375ZM28.625 19.25C28.1277 19.25 27.6508 19.0525 27.2992 18.7008C26.9475 18.3492 26.75 17.8723 26.75 17.375V2.37875C26.75 1.88147 26.9475 1.40456 27.2992 1.05293C27.6508 0.701298 28.1277 0.503754 28.625 0.503754H43.6213C44.1185 0.503754 44.5954 0.701298 44.9471 1.05293C45.2987 1.40456 45.4963 1.88147 45.4963 2.37875V17.375C45.4963 17.8723 45.2987 18.3492 44.9471 18.7008C44.5954 19.0525 44.1185 19.25 43.6213 19.25H28.625ZM2.375 45.5C1.87772 45.5 1.40081 45.3025 1.04918 44.9508C0.697544 44.5992 0.5 44.1223 0.5 43.625V28.625C0.5 28.1277 0.697544 27.6508 1.04918 27.2992C1.40081 26.9475 1.87772 26.75 2.375 26.75H17.375C17.8723 26.75 18.3492 26.9475 18.7008 27.2992C19.0525 27.6508 19.25 28.1277 19.25 28.625V43.625C19.25 44.1223 19.0525 44.5992 18.7008 44.9508C18.3492 45.3025 17.8723 45.5 17.375 45.5H2.375ZM28.625 45.5C28.1277 45.5 27.6508 45.3025 27.2992 44.9508C26.9475 44.5992 26.75 44.1223 26.75 43.625V28.625C26.75 28.1277 26.9475 27.6508 27.2992 27.2992C27.6508 26.9475 28.1277 26.75 28.625 26.75H43.6213C44.1185 26.75 44.5954 26.9475 44.9471 27.2992C45.2987 27.6508 45.4963 28.1277 45.4963 28.625V43.625C45.4963 44.1223 45.2987 44.5992 44.9471 44.9508C44.5954 45.3025 44.1185 45.5 43.6213 45.5H28.625Z" fill="#CD7066"/>
</svg>
