<svg width="60" height="60" viewBox="0 0 60 60" fill="none" xmlns="http://www.w3.org/2000/svg">
<path d="M11.2851 5.7955e-06H17.8104L11.2664 17.9962H0L8.49657 1.65566C8.75586 1.15808 9.15401 0.73969 9.64648 0.447293C10.139 0.154896 10.7063 2.44716e-05 11.2851 5.7955e-06ZM0.224579 23.995L19.0268 52.111L11.0979 23.995H0.224579ZM17.5608 23.995L27.1054 57.8578C27.2746 58.4719 27.6502 59.015 28.1737 59.4025C28.6973 59.7899 29.3394 60 30 60C30.6606 60 31.3027 59.7899 31.8263 59.4025C32.3498 59.015 32.7254 58.4719 32.8946 57.8578L42.4641 23.995H17.5608ZM48.927 23.995L40.9794 52.0991L59.7754 23.995H48.927ZM60 17.9962H48.7523L42.2021 5.7955e-06H48.7149C49.2948 -0.0010901 49.8634 0.153255 50.3571 0.445715C50.8508 0.738174 51.2499 1.15717 51.5097 1.65566L60 17.9962ZM42.146 17.9962H17.879L24.4167 5.7955e-06H35.5833L42.146 17.9962Z" fill="#CD7066"/>
</svg>
