<svg width="54" height="54" viewBox="0 0 54 54" fill="none" xmlns="http://www.w3.org/2000/svg">
<path fill-rule="evenodd" clip-rule="evenodd" d="M22.7737 0.750002H31.1362C32.3962 0.731252 33.63 1.14375 34.6237 1.92C35.625 2.7075 36.3187 3.81375 36.5737 5.05875L37.305 8.565C37.6225 8.735 37.935 8.91 38.2425 9.09L41.7862 7.9275C42.5153 7.69221 43.2851 7.61039 44.0473 7.68719C44.8095 7.76399 45.5476 7.99775 46.215 8.37375C47.04 8.83875 47.7337 9.50625 48.2175 10.3238L52.4362 17.2838C53.1182 18.3622 53.3872 19.651 53.1935 20.9122C52.9998 22.1734 52.3566 23.3221 51.3825 24.1462H51.375L48.5925 26.52V27.4875L51.3412 29.9363C52.2965 30.747 52.9329 31.8706 53.1369 33.1069C53.3409 34.3431 53.0992 35.6116 52.455 36.6863L48.3675 43.6613V43.6688C47.8811 44.4826 47.1916 45.1563 46.3666 45.6236C45.5416 46.091 44.6094 46.3361 43.6612 46.335C43.0748 46.3382 42.4915 46.2496 41.9325 46.0725L41.9137 46.065L38.4 44.9062C38.0875 45.0913 37.77 45.2675 37.4475 45.435L36.72 48.9375C36.4632 50.1831 35.7721 51.2969 34.77 52.08C33.7737 52.8594 32.5397 53.2725 31.275 53.25H22.845C21.5828 53.2708 20.3517 52.8578 19.3575 52.08C18.3562 51.2978 17.6651 50.1855 17.4075 48.9412L16.6762 45.4313C16.3596 45.2637 16.047 45.0887 15.7387 44.9062L12.195 46.0688C11.466 46.304 10.6961 46.3859 9.93392 46.3091C9.17173 46.2323 8.43368 45.9985 7.76624 45.6225C6.94012 45.1616 6.24957 44.4917 5.76374 43.68L1.54124 36.705C0.886518 35.6483 0.625001 34.3948 0.802619 33.1645C0.980238 31.9342 1.58563 30.8058 2.5125 29.9775L5.31375 26.445L2.63999 24.0638C1.68342 23.2521 1.04658 22.1269 0.84324 20.889C0.639901 19.6511 0.883315 18.3812 1.52999 17.3063L1.5375 17.2988L5.76374 10.3238C6.24309 9.51746 6.92287 8.84888 7.73702 8.383C8.55117 7.91712 9.47199 7.66977 10.41 7.665C10.975 7.635 11.5325 7.68875 12.0825 7.82625L12.165 7.84875L15.6712 9.0825C15.9787 8.9025 16.2912 8.73 16.6087 8.565L17.3362 5.0625C17.593 3.81691 18.2842 2.70313 19.2862 1.92C20.2762 1.14375 21.5137 0.731252 22.7737 0.750002ZM27 19.5C25.0109 19.5 23.1032 20.2902 21.6967 21.6967C20.2902 23.1032 19.5 25.0109 19.5 27C19.5 28.9891 20.2902 30.8968 21.6967 32.3033C23.1032 33.7098 25.0109 34.5 27 34.5C28.9891 34.5 30.8968 33.7098 32.3033 32.3033C33.7098 30.8968 34.5 28.9891 34.5 27C34.5 25.0109 33.7098 23.1032 32.3033 21.6967C30.8968 20.2902 28.9891 19.5 27 19.5ZM15.75 27C15.75 24.0163 16.9353 21.1548 19.045 19.045C21.1548 16.9353 24.0163 15.75 27 15.75C29.9837 15.75 32.8452 16.9353 34.9549 19.045C37.0647 21.1548 38.25 24.0163 38.25 27C38.25 29.9837 37.0647 32.8452 34.9549 34.955C32.8452 37.0647 29.9837 38.25 27 38.25C24.0163 38.25 21.1548 37.0647 19.045 34.955C16.9353 32.8452 15.75 29.9837 15.75 27Z" fill="#CD7066"/>
</svg>
