<svg width="62" height="50" viewBox="0 0 62 50" fill="none" xmlns="http://www.w3.org/2000/svg">
<path d="M61.1782 28.9487L61.1604 28.2117C61.1223 25.3404 59.521 11.5902 58.6213 9.12837C57.5792 6.28519 56.1457 4.15089 54.3639 2.78176C51.4588 0.547651 48.9883 0.0614188 45.9433 0H45.8671C44.5708 0 36.0867 1.06203 28.9852 2.04985C21.8761 3.04023 12.9649 4.39144 10.8375 5.18989C7.90695 6.29542 5.57622 7.74133 3.73095 9.61204C0.330174 13.0541 -0.0841208 16.6343 0.340341 21.297C0.670761 24.9104 2.56432 39.1468 3.64962 42.4045C5.10855 46.7986 7.95524 49.4421 11.6661 49.849C12.5811 49.9488 13.4555 50 14.3222 50C17.5755 50 20.1553 49.2886 23.1418 48.4697C27.8389 47.1773 33.6822 45.5779 45.7451 45.5779H46.1009C49.0544 45.5779 56.288 44.9048 59.5795 38.7015C61.3409 35.3823 61.2367 31.3568 61.1782 28.9487ZM41.5589 24.675L41.292 24.8439C40.5956 25.3182 39.9017 25.7984 39.2104 26.2847L28.2862 33.898C27.6 34.4355 26.385 35.2313 25.7039 35.2313C25.6097 35.2323 25.5166 35.2113 25.4319 35.1699C24.8575 34.8628 24.6618 32.7644 24.5271 31.7407L24.4991 31.5181C24.3339 30.2948 22.9893 18.6329 22.8368 17.3534C22.7936 16.99 22.57 15.6567 22.9766 15.3547C23.1037 15.26 23.2816 15.2267 23.485 15.2267C23.9806 15.2267 24.6084 15.4391 24.8804 15.5287C27.0281 16.2248 37.7998 20.0686 41.1472 21.7934C41.2437 21.8446 41.3471 21.8932 41.4573 21.9393C41.9351 22.144 42.5908 22.4307 42.6061 23.2445C42.6163 24.0224 42.0342 24.3833 41.5589 24.675Z" fill="#CD7066"/>
</svg>
